<svg xmlns="http://www.w3.org/2000/svg" width="20.754" height="22.747" viewBox="0 0 20.754 22.747">
  <g id="Group_1" data-name="Group 1" transform="translate(-848.153 -1995.177)">
    <path id="Path_12" data-name="Path 12" d="M850.206,2001.053h-2.053V1999.2h4.29c0-.381-.015-.69,0-1a2.978,2.978,0,0,1,2.84-2.955c2.15-.088,4.308-.091,6.458,0a3.022,3.022,0,0,1,2.882,3.133c.005.243,0,.486,0,.807h4.281v1.857h-2.1v.838c0,4.218-.052,8.438.023,12.655a3.289,3.289,0,0,1-3.357,3.39c-3.32-.056-6.642-.01-9.963-.019a3.155,3.155,0,0,1-3.3-3.3q-.009-6.362,0-12.723Zm1.932.035c-.014.189-.041.38-.041.571q0,6.429,0,12.856c0,1.091.418,1.5,1.5,1.5q4.846,0,9.693,0c1.3,0,1.669-.369,1.67-1.686q0-6.259,0-12.52c0-.237-.02-.473-.031-.724Zm10.556-1.934c.106-1.778-.178-2.087-1.889-2.094q-2.421-.009-4.841,0c-1.389.007-1.9.691-1.563,2.089Z" fill="#fff"/>
    <path id="Path_13" data-name="Path 13" d="M855.408,2012.372h-1.33v-7.638h1.33Z" fill="#fff"/>
    <path id="Path_14" data-name="Path 14" d="M857.862,2012.354v-7.6H859.2v7.6Z" fill="#fff"/>
    <path id="Path_15" data-name="Path 15" d="M861.669,2004.731h1.31v7.631h-1.31Z" fill="#fff"/>
  </g>
</svg>
