<svg xmlns="http://www.w3.org/2000/svg" width="23.875" height="23.871" viewBox="0 0 23.875 23.871">
  <g id="Group_11" data-name="Group 11" transform="translate(-1632.161 -1025.517)">
    <path id="Path_74" data-name="Path 74" d="M1655.951,1031.567a8.027,8.027,0,0,0-.5-2.7,4.808,4.808,0,0,0-2.76-2.761,8,8,0,0,0-2.7-.5c-1.531-.068-1.992-.085-5.885-.085s-4.348.017-5.885.085a8.036,8.036,0,0,0-2.7.5,4.521,4.521,0,0,0-1.673,1.088,4.42,4.42,0,0,0-1.093,1.673,7.993,7.993,0,0,0-.5,2.7c-.068,1.531-.084,2-.084,5.885s.016,4.349.084,5.886a8.04,8.04,0,0,0,.5,2.7,4.517,4.517,0,0,0,1.088,1.673,4.463,4.463,0,0,0,1.672,1.087,8.007,8.007,0,0,0,2.7.5c1.531.068,2,.086,5.886.086s4.347-.018,5.885-.086a8.034,8.034,0,0,0,2.7-.5,4.83,4.83,0,0,0,2.766-2.766,8,8,0,0,0,.5-2.7c.069-1.538.085-1.993.085-5.88s-.016-4.349-.085-5.885m-11.861,13.358a7.484,7.484,0,1,1,7.484-7.484,7.486,7.486,0,0,1-7.484,7.484m7.781-13.518a1.747,1.747,0,1,1,1.747-1.746,1.747,1.747,0,0,1-1.747,1.746" fill="#4b1d4b"/>
    <path id="Path_75" data-name="Path 75" d="M1648.945,1037.441a4.855,4.855,0,1,1-4.855-4.855,4.857,4.857,0,0,1,4.855,4.855" fill="#4b1d4b"/>
  </g>
</svg>
