<svg xmlns="http://www.w3.org/2000/svg" width="219.915" height="54.979" viewBox="0 0 219.915 54.979">
  <g id="Group_22" data-name="Group 22" transform="translate(-193.932 -52.996)">
    <path id="Path_1" data-name="Path 1" d="M-4711.153-11534.921c2.385,2.476,3.1,5.8,1.528,8.641-1.58,2.852-3.824,5.031-7.334,5.254a7.155,7.155,0,0,1-5.555-2.1c-.194-.183-.373-.383-.558-.576q-10.058-10.441-20.112-20.885l-8.427,8.2q10.32,10.679,20.622,21.373a18.947,18.947,0,0,0,24.695,2.244c4.208-3.061,7.433-6.933,8.607-12.174,1.519-6.781,0-12.832-4.808-17.871q-10.225-10.733-20.545-21.372l-8.412,8.185q10.151,10.54,20.3,21.078" transform="translate(4945.543 11617.18)" fill="#31ac6a"/>
    <path id="Path_2" data-name="Path 2" d="M-4664.6-11524.514a18.256,18.256,0,0,1-3.32,4.369,11.32,11.32,0,0,1-3.577,2.047,12.268,12.268,0,0,1-4.381.792,10.08,10.08,0,0,1-7.65-3.218,11.414,11.414,0,0,1-3.115-6.69h29.966l-.017-1.738a19.93,19.93,0,0,0-4.056-12.54,18.153,18.153,0,0,0-14.991-7.173,17.641,17.641,0,0,0-14.615,7.018,19.776,19.776,0,0,0-4.278,12.472,19.969,19.969,0,0,0,5.031,13.3c3.406,3.991,8.146,6,14.1,6a20,20,0,0,0,7.221-1.255,18,18,0,0,0,5.819-3.63,21.888,21.888,0,0,0,4.484-6.158l.77-1.513-6.554-3.458Zm-.856-9.874h-20.193a10.9,10.9,0,0,1,2.635-3.956,10.509,10.509,0,0,1,7.324-2.735,11.623,11.623,0,0,1,4.98,1.1,10.057,10.057,0,0,1,3.731,2.855,10.508,10.508,0,0,1,1.523,2.734" transform="translate(4945.543 11617.18)" fill="#31ac6a"/>
    <rect id="Rectangle_3" data-name="Rectangle 3" width="7.719" height="50.022" transform="translate(292.818 56.406)" fill="#31ac6a"/>
    <path id="Path_3" data-name="Path 3" d="M-4631.024-11556.337a5.18,5.18,0,0,1-1.54,3.716,5.135,5.135,0,0,1-3.713,1.548,5.125,5.125,0,0,1-3.7-1.548,5.18,5.18,0,0,1-1.54-3.716,5.227,5.227,0,0,1,1.54-3.749,5.269,5.269,0,0,1,7.41,0,5.227,5.227,0,0,1,1.54,3.749" transform="translate(4945.543 11617.18)" fill="#31ac6a"/>
    <rect id="Rectangle_4" data-name="Rectangle 4" width="7.718" height="37.052" transform="translate(305.414 69.375)" fill="#31ac6a"/>
    <path id="Path_4" data-name="Path 4" d="M-4594.161-11547.8l-16.874,37.052h-2.995l-16.977-37.052h8.352l10.114,22.087,9.994-22.087Z" transform="translate(4945.543 11617.18)" fill="#31ac6a"/>
    <path id="Path_5" data-name="Path 5" d="M-4555.672-11528.952a20.052,20.052,0,0,0-4.073-12.54,18.108,18.108,0,0,0-14.992-7.173,17.642,17.642,0,0,0-14.615,7.018,19.869,19.869,0,0,0-4.261,12.472,19.953,19.953,0,0,0,5.015,13.3c3.405,3.991,8.146,6,14.1,6a19.934,19.934,0,0,0,7.221-1.255,18,18,0,0,0,5.818-3.63,21.861,21.861,0,0,0,4.485-6.158l.77-1.513-6.555-3.458-.838,1.376a18.268,18.268,0,0,1-3.321,4.369,11.113,11.113,0,0,1-3.576,2.047,12.251,12.251,0,0,1-4.364.792,10.09,10.09,0,0,1-7.667-3.218,11.409,11.409,0,0,1-3.116-6.69h29.967Zm-8.779-5.436h-20.194a10.9,10.9,0,0,1,2.635-3.956,10.509,10.509,0,0,1,7.325-2.735,11.625,11.625,0,0,1,4.98,1.1,10.057,10.057,0,0,1,3.731,2.855,10.061,10.061,0,0,1,1.523,2.734" transform="translate(4945.543 11617.18)" fill="#31ac6a"/>
    <path id="Path_6" data-name="Path 6" d="M-4531.7-11546.429l-3.953,6.433-1.369-.584a4.53,4.53,0,0,0-1.591-.447,4.561,4.561,0,0,0-3.012,1.342,9.7,9.7,0,0,0-2.534,4.7c-.342,1.2-.735,4.129-.735,11.147v13.09h-7.821v-37.052h7.821v2.013a13.081,13.081,0,0,1,1.506-1.153,9.089,9.089,0,0,1,10.131-.36Z" transform="translate(4945.543 11617.18)" fill="#31ac6a"/>
  </g>
</svg>
