<svg xmlns="http://www.w3.org/2000/svg" width="29.539" height="20.103" viewBox="0 0 29.539 20.103">
  <g id="Group_12" data-name="Group 12" transform="translate(-1696.529 -1027.401)">
    <path id="Path_77" data-name="Path 77" d="M1698.241,1027.4h26.133c-.169.2-.276.351-.4.48q-5.008,5.012-10.021,10.02a3.573,3.573,0,0,1-5.123.137c-3.47-3.432-6.908-6.9-10.358-10.347C1698.409,1027.631,1698.363,1027.558,1698.241,1027.4Z" fill="#4b1d4b"/>
    <path id="Path_78" data-name="Path 78" d="M1698.316,1047.5l8.3-8.3a6.108,6.108,0,0,0,4.707,2.238,6,6,0,0,0,4.639-2.2l8.255,8.263Z" fill="#4b1d4b"/>
    <path id="Path_79" data-name="Path 79" d="M1696.529,1045.676v-16.308l8.154,8.154Z" fill="#4b1d4b"/>
    <path id="Path_80" data-name="Path 80" d="M1726.068,1045.642l-8.174-8.172,8.174-8.173Z" fill="#4b1d4b"/>
  </g>
</svg>
