<svg xmlns="http://www.w3.org/2000/svg" width="27.054" height="18.942" viewBox="0 0 27.054 18.942">
  <path id="Path_76" data-name="Path 76" d="M1462.131,1030.945a3.39,3.39,0,0,0-2.385-2.385c-2.117-.579-10.585-.579-10.585-.579s-8.469,0-10.586.557a3.46,3.46,0,0,0-2.384,2.407,38.286,38.286,0,0,0,0,13.014,3.39,3.39,0,0,0,2.385,2.385c2.139.579,10.585.579,10.585.579s8.468,0,10.585-.557a3.389,3.389,0,0,0,2.385-2.384,35.731,35.731,0,0,0,.557-6.508,33.849,33.849,0,0,0-.557-6.529m-15.666,10.563V1033.4l7.042,4.056Z" transform="translate(-1435.634 -1027.981)" fill="#4b1d4b"/>
</svg>
