<svg xmlns="http://www.w3.org/2000/svg" width="27.537" height="22.375" viewBox="0 0 27.537 22.375">
  <path id="Path_73" data-name="Path 73" d="M1593.09,1028.914a11.787,11.787,0,0,1-3.253.892,5.613,5.613,0,0,0,2.484-3.121,11.261,11.261,0,0,1-3.58,1.367,5.644,5.644,0,0,0-9.765,3.86,5.812,5.812,0,0,0,.131,1.288,15.977,15.977,0,0,1-11.636-5.9,5.647,5.647,0,0,0,1.734,7.545,5.567,5.567,0,0,1-2.55-.695v.062a5.672,5.672,0,0,0,4.523,5.547,5.669,5.669,0,0,1-1.481.185,5.039,5.039,0,0,1-1.068-.1,5.7,5.7,0,0,0,5.275,3.932,11.342,11.342,0,0,1-7,2.408,10.552,10.552,0,0,1-1.352-.077,15.89,15.89,0,0,0,8.66,2.534c10.389,0,16.068-8.606,16.068-16.065,0-.249-.008-.49-.02-.73a11.25,11.25,0,0,0,2.829-2.931" transform="translate(-1565.553 -1026.265)" fill="#4b1d4b"/>
</svg>
